:SAMPLES-PER-SECOND 30
:FULLY-SPECIFIED
:DEGREES
1735
root  17.9978 38.9558 1.85102 -19.5034 -79.4534 17.3652
RightUpLeg  -11.2464 -7.92651 -22.2236
RightLeg  12.2407 -1.12114 -1.59521
RightFoot  -3.39113 -0.196223 2.4676
RightToes  -1.33073e-015 0 -3.6325e-017
Spine  11.218 -0.334872 1.15307
Spine1  7.19151 0.381308 -3.66069
HEad  16.7251 -5.01483 -1.83601
LeftShoulder1  -0.0628837 3.68313 -28.7679
LeftArm  -8.39519 22.7971 -41.067
LeftForeArm  24.166 -7.39022 -6.29598
LeftHand  -0.0431359 6.52191 -0.725785
RightShoulder  -0.470696 -4.98553 24.9133
RightArm  4.8522 -8.19766 45.1636
RightForeArm  7.28653 19.6616 3.93424
RightHand  -0.283997 3.44546 -3.96894
LeftUpLeg  4.85891 10.1936 5.52435
LeftLeg  11.2 2.40788 -0.842256
LeftFoot  -11.6503 0.0557119 -5.25989
LeftToes  -1.93726e-010 2.42366e-011 2.16268e-013
1736
root  17.6497 38.8488 1.03163 -22.8043 -79.3018 20.7316
RightUpLeg  -9.98475 -9.73284 -22.1176
RightLeg  9.5994 1.19906 -2.56167
RightFoot  -4.42635 -0.124679 1.6435
RightToes  -1.33073e-015 0 -3.6325e-017
Spine  11.1691 -0.51036 0.593559
Spine1  7.1599 -0.0317161 -2.8041
HEad  14.7831 -4.63797 -2.35205
LeftShoulder1  -0.167485 3.97689 -29.2719
LeftArm  -8.10191 21.6194 -40.3432
LeftForeArm  22.9885 -7.60938 -6.39368
LeftHand  -0.0302918 6.64301 0.484818
RightShoulder  -0.432744 -4.8702 24.769
RightArm  4.27405 -8.64785 45.6115
RightForeArm  7.14218 21.1108 4.15653
RightHand  -0.335308 3.71447 -4.53725
LeftUpLeg  5.45815 10.063 6.12165
LeftLeg  10.5599 2.31935 -0.462735
LeftFoot  -11.2595 0.071987 -6.49323
LeftToes  -1.93726e-010 2.42366e-011 2.16268e-013
1737
root  17.253 38.6863 0.106464 -26.2239 -79.0678 24.4144
RightUpLeg  -9.10925 -11.0766 -21.8555
RightLeg  8.25441 3.16363 -3.00668
RightFoot  -5.2318 -0.29133 4.55417
RightToes  -1.33073e-015 0 -3.6325e-017
Spine  11.0019 -0.62433 0.0968582
Spine1  6.96059 -0.322769 -2.1686
HEad  12.3892 -4.58182 -2.94241
LeftShoulder1  -0.0985914 3.7844 -29.0099
LeftArm  -8.26469 20.464 -40.3279
LeftForeArm  22.9937 -8.42142 -6.328
LeftHand  -0.0296623 6.47225 0.502526
RightShoulder  -0.457916 -4.9429 24.9513
RightArm  3.76302 -9.10577 45.9681
RightForeArm  7.4579 22.4746 4.40908
RightHand  -0.322579 3.12192 -4.62778
LeftUpLeg  5.87282 10.2826 7.00625
LeftLeg  10.0212 1.84701 -0.426606
LeftFoot  -10.9054 0.0937828 -7.54443
LeftToes  -1.93726e-010 2.42366e-011 2.16268e-013
1738
root  16.8168 38.5173 -0.858053 -27.0561 -79.0466 25.3868
RightUpLeg  -8.64306 -12.1845 -21.1569
RightLeg  7.75355 4.30887 -2.80419
RightFoot  -2.65934 -0.878663 11.3387
RightToes  -1.33073e-015 0 -3.6325e-017
Spine  11.0823 -0.937215 0.805326
Spine1  6.53976 -0.578746 -2.1389
HEad  9.77353 -4.21353 -4.04027
LeftShoulder1  -0.077345 3.7233 -29.0915
LeftArm  -8.57659 18.6464 -40.1676
LeftForeArm  22.9803 -9.22821 -6.11979
LeftHand  -0.0278457 7.24094 0.699769
RightShoulder  -0.480106 -5.00363 25.1676
RightArm  4.53877 -9.16287 46.248
RightForeArm  7.25697 23.0724 4.55611
RightHand  -0.37282 3.95744 -4.89632
LeftUpLeg  6.18053 10.5159 8.45602
LeftLeg  9.87765 1.27409 -0.078008
LeftFoot  -10.6301 0.119433 -8.92391
LeftToes  -1.93726e-010 2.42366e-011 2.16268e-013
1739
root  16.4425 38.4106 -1.75951 -25.7776 -80.0666 24.3164
RightUpLeg  -10.2059 -13.3668 -19.8492
RightLeg  9.96487 6.31399 -0.588062
RightFoot  1.11605 -1.35792 12.5284
RightToes  -1.33073e-015 0 -3.6325e-017
Spine  11.7644 -1.34282 3.52887
Spine1  5.62414 -0.496425 -3.12969
HEad  6.46524 -4.59579 -5.10052
LeftShoulder1  -0.122655 3.85182 -29.1035
LeftArm  -9.19718 16.8631 -40.6376
LeftForeArm  22.9293 -10.7554 -5.63568
LeftHand  -0.0318098 7.39502 0.485744
RightShoulder  -0.49763 -5.05987 25.1348
RightArm  6.73205 -8.14903 46.7259
RightForeArm  6.52378 22.2325 4.43791
RightHand  -0.363108 4.1574 -4.68196
LeftUpLeg  6.31543 10.7745 10.3904
LeftLeg  9.97019 1.75703 0.58455
LeftFoot  -10.0812 0.171393 -10.0818
LeftToes  -1.93726e-010 2.42366e-011 2.16268e-013
1740
root  16.0142 38.3409 -2.6718 -23.1824 -81.6176 22.3101
RightUpLeg  -12.2163 -13.6952 -17.7674
RightLeg  12.8825 6.8682 1.10452
RightFoot  0.00618377 -1.33532 13.3688
RightToes  -1.33073e-015 0 -3.6325e-017
Spine  11.8957 -1.35888 5.2354
Spine1  4.7714 -0.455586 -2.63472
HEad  3.09825 -3.34666 -6.45616
LeftShoulder1  -0.0868718 3.75085 -29.004
LeftArm  -9.35127 16.4421 -42.0019
LeftForeArm  21.0369 -13.5137 -4.97699
LeftHand  -0.0274753 5.28996 1.50692
RightShoulder  -0.365052 -4.66251 24.5078
RightArm  9.31211 -7.20002 46.8572
RightForeArm  5.84533 21.262 4.37291
RightHand  -0.324615 3.80214 -4.36674
LeftUpLeg  6.03537 11.1395 12.5714
LeftLeg  10.3891 3.09327 1.24411
LeftFoot  -8.94536 0.270943 -10.3358
LeftToes  -1.93726e-010 2.42366e-011 2.16268e-013
1741
root  15.5929 38.4362 -3.59493 -19.6727 -82.2498 19.0764
RightUpLeg  -12.8866 -14.21 -15.5967
RightLeg  14.4748 7.31686 1.80115
RightFoot  -1.3498 -1.07868 12.1911
RightToes  -1.33073e-015 0 -3.6325e-017
Spine  12.1364 -1.5012 5.43479
Spine1  4.30095 -0.912124 -0.917336
HEad  -0.307739 -2.84648 -6.13409
LeftShoulder1  -0.0245262 3.57448 -28.7158
LeftArm  -7.2412 16.0496 -43.1505
LeftForeArm  17.6816 -17.3339 -4.53491
LeftHand  -0.0192699 5.73309 2.91902
RightShoulder  -0.263479 -4.33166 24.5471
RightArm  12.0743 -5.73284 46.4786
RightForeArm  4.3213 20.0164 4.49169
RightHand  -0.343036 3.38937 -4.77734
LeftUpLeg  5.66388 11.5592 14.4482
LeftLeg  10.9156 5.10712 1.83007
LeftFoot  -5.8051 0.492516 -9.52813
LeftToes  -1.93726e-010 2.42366e-011 2.16268e-013
1742
root  15.1866 38.6332 -4.42984 -16.8386 -82.3955 16.0729
RightUpLeg  -12.3703 -13.2218 -13.7698
RightLeg  14.8213 6.38452 1.57504
RightFoot  -1.85968 -0.873817 10.3585
RightToes  -1.33073e-015 0 -3.6325e-017
Spine  12.4329 -1.79114 5.45943
Spine1  4.26972 -1.44153 0.461538
HEad  -3.01579 -3.3812 -5.31975
LeftShoulder1  0.0518778 3.35169 -28.2625
LeftArm  -3.42612 14.8693 -43.9964
LeftForeArm  15.4433 -21.1426 -4.2833
LeftHand  -0.0239357 5.4612 3.52992
RightShoulder  -0.267005 -4.33378 24.8743
RightArm  13.8071 -4.03491 46.0313
RightForeArm  3.82251 18.303 4.75911
RightHand  -0.298868 3.52741 -4.13991
LeftUpLeg  5.18093 11.3596 15.477
LeftLeg  11.9844 9.24809 3.04924
LeftFoot  -1.55933 0.588 -6.90051
LeftToes  -1.93726e-010 2.42366e-011 2.16268e-013
1743
root  14.7808 38.8703 -5.16808 -18.4398 -82.1726 17.791
RightUpLeg  -11.5084 -12.9506 -12.8385
RightLeg  14.0892 5.86957 1.33496
RightFoot  -2.35599 -0.74991 9.32344
RightToes  -1.33073e-015 0 -3.6325e-017
Spine  12.3871 -2.11887 5.27844
Spine1  3.93121 -1.82171 0.671799
HEad  -5.50623 -3.94528 -4.13515
LeftShoulder1  0.188388 2.94501 -27.4982
LeftArm  -1.95429 13.8673 -44.7025
LeftForeArm  17.9417 -25.0436 -4.35734
LeftHand  -0.0584145 4.12399 3.63778
RightShoulder  -0.30888 -4.46726 24.8986
RightArm  13.7484 -3.46159 46.2186
RightForeArm  3.51419 16.8331 5.04042
RightHand  -0.357389 3.22427 -5.05581
LeftUpLeg  3.96482 11.195 15.0356
LeftLeg  13.9403 12.4717 4.06145
LeftFoot  0.902206 0.399525 -3.69316
LeftToes  -1.93726e-010 2.42366e-011 2.16268e-013
1744
root  14.4113 39.0813 -5.77297 -22.0038 -82.0151 21.6342
RightUpLeg  -10.8352 -12.7611 -12.3735
RightLeg  13.2592 5.62844 1.14437
RightFoot  -2.84165 -0.682467 8.90783
RightToes  -1.33073e-015 0 -3.6325e-017
Spine  12.0278 -2.33214 5.1306
Spine1  3.76725 -2.05954 0.75234
HEad  -7.96176 -4.47653 -3.25658
LeftShoulder1  0.221011 2.84475 -27.3565
LeftArm  -1.8881 12.4704 -45.0243
LeftForeArm  22.642 -28.9591 -5.03451
LeftHand  -0.0662409 3.54364 3.09006
RightShoulder  -0.251669 -4.30581 24.0631
RightArm  12.6199 -3.97416 46.8374
RightForeArm  3.20546 16.3847 5.02455
RightHand  -0.368935 2.98651 -5.34311
LeftUpLeg  2.18996 11.2453 13.4798
LeftLeg  16.9578 9.95369 3.71219
LeftFoot  -1.43492 0.378761 -4.29673
LeftToes  -1.93726e-010 2.42366e-011 2.16268e-013
